# xmcd
#
# Track frame offsets:
#	150
#	9571
#	11502
#	23591
#	39575
#	55229
#	105336
#	131804
#	147049
#	161688
#	176319
#	198846
#	225837
#	251448
#
# Disc length: 3567 seconds
#
# Revision: 1
# Processed by: cddbd v1.5.2PL0 Copyright (c) Steve Scherf et al.
# Submitted via: audiograbber 1.83.01
#
DISCID=9f0ded0e
DTITLE=Cowboys On Dope - Live At The Blue Shell
DYEAR=2008
DGENRE=Country
TTITLE0=Gunsmoke
TTITLE1=Run Run Run
TTITLE2=Subterranean Homesick Blues
TTITLE3=Roamin' Round
TTITLE4=Wanna Be Your Dog
TTITLE5=Motorcycle Boy
TTITLE6=Ghostriders In The Sky
TTITLE7=Guns Of Brixton
TTITLE8=Getting Better
TTITLE9=Dead Man
TTITLE10=Dead Flowers
TTITLE11=Harmony
TTITLE12=Holiday From Myself
TTITLE13=Too Drunk To Fuck
EXTD=
EXTT0=
EXTT1=
EXTT2=
EXTT3=
EXTT4=
EXTT5=
EXTT6=
EXTT7=
EXTT8=
EXTT9=
EXTT10=
EXTT11=
EXTT12=
EXTT13=
PLAYORDER=
